<svg width="27" height="30" viewBox="0 0 27 30" fill="none" xmlns="http://www.w3.org/2000/svg">
<path d="M13.5 0C7.51272 0 2.66601 4.92721 2.66601 10.9658V16.2217C1.18651 16.8738 0 18.0876 0 19.7959C0 22.0881 1.87206 24 4.16601 24H22.834C25.1279 24 27 22.0881 27 19.7959C27 18.0876 25.8135 16.8738 24.334 16.2217V10.9658C24.334 4.92721 19.4873 0 13.5 0ZM21.334 10.9658C21.337 12.958 21.3355 15.0584 21.322 17.0127C21.2785 17.8695 21.9611 18.5882 22.7278 18.5885C23.4945 18.5889 23.9998 19.091 23.9998 19.7959C23.9998 20.5008 23.4945 21 22.8337 21H4.16571C3.505 21 2.9997 20.5008 2.9997 19.7959C2.9997 19.091 3.505 18.5889 4.27104 18.5885C5.03707 18.5881 5.71918 17.8713 5.67744 17.0156C5.64654 15.031 5.66544 12.9773 5.66544 10.9658C5.66544 6.51451 9.14538 3 13.4994 3C17.8535 3 21.334 6.51451 21.334 10.9658Z" fill="#333333"/>
<path d="M10.4999 27C10.1021 27 9.72058 27.1581 9.43928 27.4394C9.15797 27.7207 8.99994 28.1022 8.99994 28.5C8.99994 28.8978 9.15797 29.2793 9.43928 29.5606C9.72058 29.8419 10.1021 30 10.4999 30H16.4999C16.8978 30 17.2793 29.8419 17.5606 29.5606C17.8419 29.2793 17.9999 28.8978 17.9999 28.5C17.9999 28.1022 17.8419 27.7207 17.5606 27.4394C17.2793 27.1581 16.8978 27 16.4999 27H10.4999Z" fill="#333333"/>
</svg>
