<svg width="34" height="34" viewBox="0 0 34 34" fill="none" xmlns="http://www.w3.org/2000/svg">
<path fill-rule="evenodd" clip-rule="evenodd" d="M10.2 27.2C8.33 27.2 6.8 28.73 6.8 30.6C6.8 32.47 8.33 34 10.2 34C12.07 34 13.6 32.47 13.6 30.6C13.6 28.73 12.07 27.2 10.2 27.2ZM0 0V3.4H3.4L9.52 16.32L7.14 20.4C6.97 20.91 6.8 21.59 6.8 22.1C6.8 23.97 8.33 25.5 10.2 25.5H30.6V22.1H10.88C10.71 22.1 10.54 21.93 10.54 21.76V21.59L12.07 18.7H24.65C26.01 18.7 27.03 18.02 27.54 17L33.66 5.95C34 5.61 34 5.44 34 5.1C34 4.08 33.32 3.4 32.3 3.4H7.14L5.61 0H0ZM27.2 27.2C25.33 27.2 23.8 28.73 23.8 30.6C23.8 32.47 25.33 34 27.2 34C29.07 34 30.6 32.47 30.6 30.6C30.6 28.73 29.07 27.2 27.2 27.2Z" fill="#333333"/>
</svg>
