<svg width="10" height="10" viewBox="0 0 10 10" fill="none" xmlns="http://www.w3.org/2000/svg">
<path fill-rule="evenodd" clip-rule="evenodd" d="M9.96209 4.30186C9.90384 4.53827 9.78062 4.75367 9.60636 4.92372L8.42825 6.07307C8.37352 6.12632 8.33255 6.19207 8.30888 6.26467C8.28521 6.33727 8.27956 6.41454 8.2924 6.48981L8.57327 8.11049C8.61561 8.35052 8.58939 8.59762 8.49761 8.82341C8.40583 9.0492 8.25223 9.24453 8.05444 9.38695C7.85781 9.53128 7.62445 9.61719 7.38117 9.63481C7.1379 9.65243 6.89459 9.60104 6.67921 9.48656L5.22064 8.7206C5.1531 8.68487 5.07785 8.66619 5.00144 8.66619C4.92503 8.66619 4.84978 8.68487 4.78223 8.7206L3.32366 9.48656C3.10819 9.59972 2.86537 9.65037 2.62263 9.63277C2.37988 9.61518 2.1469 9.53004 1.95001 9.38699C1.75311 9.24393 1.60015 9.04866 1.50841 8.82323C1.41666 8.59781 1.3898 8.35122 1.43085 8.11133L1.70881 6.48939C1.72161 6.41412 1.71594 6.33687 1.69227 6.26427C1.66861 6.19168 1.62766 6.12592 1.57295 6.07266L0.394009 4.92414C0.219628 4.7541 0.0963021 4.53867 0.0379772 4.3022C-0.0203476 4.06573 -0.0113442 3.81765 0.0639692 3.58603C0.139283 3.35441 0.277901 3.14849 0.464149 2.99154C0.650397 2.83459 0.876843 2.73289 1.11788 2.69793L2.7469 2.46123C2.8225 2.45023 2.89429 2.42099 2.95608 2.37605C3.01786 2.33111 3.06779 2.27181 3.10154 2.20327L3.82999 0.727609C3.93772 0.509213 4.1044 0.32532 4.31121 0.196734C4.51801 0.0681476 4.75667 0 5.00019 0C5.2437 0 5.48236 0.0681476 5.68916 0.196734C5.89597 0.32532 6.06266 0.509213 6.17038 0.727609L6.89883 2.20327C6.93259 2.27181 6.98251 2.33111 7.04429 2.37605C7.10608 2.42099 7.17787 2.45023 7.25347 2.46123L8.88249 2.69793C9.12344 2.73295 9.34979 2.83467 9.53597 2.99158C9.72214 3.1485 9.86071 3.35437 9.93601 3.58591C10.0113 3.81746 10.0203 4.06545 9.96209 4.30186ZM7.5151 6.00719C7.58044 5.80594 7.69374 5.6236 7.84524 5.47589L9.02418 4.32695C9.08711 4.26551 9.13161 4.18769 9.15265 4.1023C9.17369 4.0169 9.17044 3.92732 9.14327 3.84367C9.11609 3.76003 9.06608 3.68564 8.99886 3.62892C8.93165 3.57219 8.84991 3.53538 8.76289 3.52265L7.13387 3.28595C6.92451 3.25559 6.72568 3.17474 6.55455 3.05037C6.38342 2.926 6.24513 2.76184 6.15163 2.57208L5.42317 1.09684C5.38091 1.02183 5.31947 0.959412 5.24515 0.915974C5.17082 0.872537 5.00019 0.849646 5.00019 0.849646C5.00019 0.849646 4.95806 7.7832 4.9981 7.8345C5.03815 7.8858 5.418 7.88588 5.60529 7.98422L7.06386 8.75018C7.14174 8.79125 7.22957 8.80968 7.31739 8.80338C7.40521 8.79709 7.4895 8.76632 7.56073 8.71457C7.63196 8.66282 7.68727 8.59215 7.7204 8.51058C7.75352 8.429 7.76313 8.33978 7.74814 8.25302L7.47018 6.63108C7.43434 6.42255 7.44976 6.20843 7.5151 6.00719Z" fill="#E52F06"/>
</svg>
