<svg width="29" height="30" viewBox="0 0 29 30" fill="none" xmlns="http://www.w3.org/2000/svg">
<path d="M14.1177 14.1176C18.0161 14.1176 21.1765 10.9573 21.1765 7.05882C21.1765 3.16034 18.0161 0 14.1177 0C10.2192 0 7.05884 3.16034 7.05884 7.05882C7.05884 10.9573 10.2192 14.1176 14.1177 14.1176Z" fill="#464646"/>
<path d="M28.2353 26.4706V28.2353C28.2353 28.7033 28.0494 29.1522 27.7184 29.4831C27.3875 29.8141 26.9386 30 26.4706 30H1.76471C1.29668 30 0.847817 29.8141 0.516871 29.4831C0.185924 29.1522 0 28.7033 0 28.2353V26.4706C0 23.6624 1.11554 20.9693 3.10122 18.9836C5.0869 16.9979 7.78006 15.8824 10.5882 15.8824H17.6471C20.4552 15.8824 23.1484 16.9979 25.1341 18.9836C27.1198 20.9693 28.2353 23.6624 28.2353 26.4706Z" fill="#464646"/>
</svg>
