<svg width="10" height="10" viewBox="0 0 10 10" fill="none" xmlns="http://www.w3.org/2000/svg">
<path d="M9.60636 4.92372C9.78062 4.75367 9.90384 4.53827 9.96209 4.30186C10.0203 4.06545 10.0113 3.81745 9.93601 3.58591C9.86071 3.35437 9.72214 3.1485 9.53597 2.99158C9.34979 2.83467 9.12344 2.73295 8.88249 2.69793L7.25347 2.46123C7.17787 2.45023 7.10608 2.42099 7.04429 2.37605C6.98251 2.33111 6.93258 2.27181 6.89883 2.20327L6.17038 0.727609C6.06266 0.509213 5.89597 0.32532 5.68916 0.196734C5.48236 0.0681476 5.2437 0 5.00019 0C4.75667 0 4.51801 0.0681476 4.31121 0.196734C4.1044 0.32532 3.93772 0.509213 3.82999 0.727609L3.10154 2.20327C3.06779 2.27181 3.01786 2.33111 2.95608 2.37605C2.89429 2.42099 2.8225 2.45023 2.7469 2.46123L1.11788 2.69793C0.876843 2.73289 0.650397 2.83459 0.464149 2.99154C0.277901 3.14849 0.139283 3.35441 0.0639692 3.58603C-0.0113442 3.81765 -0.0203476 4.06573 0.0379772 4.3022C0.0963021 4.53867 0.219628 4.7541 0.394009 4.92414L1.57295 6.07266C1.62766 6.12592 1.66861 6.19168 1.69227 6.26427C1.71594 6.33687 1.72161 6.41412 1.70881 6.48939L1.43085 8.11133C1.3898 8.35122 1.41666 8.59781 1.50841 8.82323C1.60015 9.04866 1.75311 9.24393 1.95001 9.38699C2.1469 9.53004 2.37988 9.61518 2.62263 9.63277C2.86537 9.65037 3.10819 9.59972 3.32366 9.48655L4.78223 8.7206C4.84978 8.68487 4.92503 8.66619 5.00144 8.66619C5.07784 8.66619 5.1531 8.68487 5.22064 8.7206L6.67921 9.48655C6.89459 9.60104 7.1379 9.65243 7.38117 9.63481C7.62445 9.61719 7.85781 9.53128 8.05444 9.38695C8.25223 9.24453 8.40583 9.0492 8.49761 8.82341C8.58939 8.59762 8.61561 8.35052 8.57327 8.11049L8.2924 6.48981C8.27956 6.41454 8.28521 6.33727 8.30888 6.26467C8.33255 6.19207 8.37352 6.12632 8.42825 6.07307L9.60636 4.92372ZM7.84524 5.47589C7.69374 5.6236 7.58044 5.80594 7.5151 6.00719C7.44976 6.20843 7.43434 6.42255 7.47018 6.63108L7.74814 8.25302C7.76313 8.33978 7.75352 8.429 7.7204 8.51058C7.68727 8.59215 7.63196 8.66282 7.56073 8.71457C7.4895 8.76632 7.40521 8.79709 7.31739 8.80338C7.22957 8.80968 7.14174 8.79125 7.06386 8.75018L5.60529 7.98422C5.418 7.88588 5.20963 7.8345 4.9981 7.8345C4.78657 7.8345 4.5782 7.88588 4.39092 7.98422L2.93234 8.75018C2.85446 8.79125 2.76664 8.80968 2.67882 8.80338C2.591 8.79709 2.5067 8.76632 2.43547 8.71457C2.36424 8.66282 2.30893 8.59215 2.27581 8.51058C2.24269 8.429 2.23307 8.33978 2.24806 8.25302L2.52603 6.6315C2.56189 6.4229 2.54649 6.20871 2.48115 6.0074C2.41581 5.80608 2.3025 5.62367 2.15097 5.47589L0.976188 4.32695C0.913261 4.26551 0.868764 4.18769 0.847722 4.1023C0.826679 4.0169 0.829928 3.92732 0.857103 3.84367C0.884278 3.76003 0.934295 3.68564 1.00151 3.62892C1.06872 3.57219 1.15046 3.53538 1.23748 3.52265L2.8665 3.28595C3.07586 3.25559 3.27469 3.17474 3.44582 3.05037C3.61695 2.926 3.75524 2.76184 3.84875 2.57208L4.5772 1.09684C4.61946 1.02183 4.6809 0.959412 4.75523 0.915974C4.82955 0.872537 4.9141 0.849646 5.00019 0.849646C5.08628 0.849646 5.17082 0.872537 5.24515 0.915974C5.31947 0.959412 5.38091 1.02183 5.42317 1.09684L6.15163 2.57208C6.24513 2.76184 6.38342 2.926 6.55455 3.05037C6.72568 3.17474 6.92451 3.25559 7.13387 3.28595L8.76289 3.52265C8.84991 3.53538 8.93165 3.57219 8.99886 3.62892C9.06608 3.68564 9.11609 3.76003 9.14327 3.84367C9.17044 3.92732 9.17369 4.0169 9.15265 4.1023C9.13161 4.18769 9.08711 4.26551 9.02418 4.32695L7.84524 5.47589Z" fill="#E52F06"/>
</svg>
