<svg width="116" height="82" viewBox="0 0 116 82" fill="none" xmlns="http://www.w3.org/2000/svg">
<path d="M13.5766 46.48C11.4966 46.48 9.5899 46.0267 7.85656 45.12C6.1499 44.2133 4.77656 42.9467 3.73656 41.32C2.72323 39.6667 2.21656 37.7733 2.21656 35.64C2.21656 33.5067 2.72323 31.6267 3.73656 30C4.77656 28.3733 6.16323 27.1067 7.89656 26.2C9.6299 25.2667 11.5366 24.8 13.6166 24.8C15.6966 24.8 17.5899 25.2667 19.2966 26.2C21.0032 27.1067 22.3632 28.3733 23.3766 30C24.3899 31.6267 24.8966 33.5067 24.8966 35.64C24.8966 37.7733 24.3899 39.6667 23.3766 41.32C22.3632 42.9467 20.9899 44.2133 19.2566 45.12C17.5499 46.0267 15.6566 46.48 13.5766 46.48ZM13.5766 39.6C14.2966 39.6 14.9366 39.4267 15.4966 39.08C16.0566 38.7333 16.4832 38.2667 16.7766 37.68C17.0966 37.0667 17.2566 36.3733 17.2566 35.6C17.2566 34.8267 17.0966 34.1467 16.7766 33.56C16.4832 32.9733 16.0566 32.5067 15.4966 32.16C14.9366 31.8133 14.2966 31.64 13.5766 31.64C12.8566 31.64 12.2166 31.8133 11.6566 32.16C11.0966 32.5067 10.6566 32.9733 10.3366 33.56C10.0166 34.1467 9.85656 34.8267 9.85656 35.6C9.85656 36.3733 10.0166 37.0667 10.3366 37.68C10.6566 38.2667 11.0966 38.7333 11.6566 39.08C12.2166 39.4267 12.8566 39.6 13.5766 39.6ZM27.8528 46V16.8H35.4928V46H27.8528ZM49.6266 46C47.4666 46 45.5466 45.5733 43.8666 44.72C42.1866 43.84 40.8666 42.6267 39.9066 41.08C38.9466 39.5333 38.4666 37.7333 38.4666 35.68C38.4666 33.6267 38.9466 31.8267 39.9066 30.28C40.8666 28.7067 42.1866 27.48 43.8666 26.6C45.5466 25.72 47.4666 25.28 49.6266 25.28H53.7066V31.6H50.3066C49.4532 31.6 48.7066 31.7867 48.0666 32.16C47.4532 32.5067 46.9732 32.9867 46.6266 33.6C46.2799 34.2133 46.1066 34.9067 46.1066 35.68C46.1066 36.4533 46.2799 37.16 46.6266 37.8C46.9732 38.4133 47.4532 38.9067 48.0666 39.28C48.7066 39.6267 49.4532 39.8 50.3066 39.8H53.7066V46H49.6266ZM65.1656 46.52C63.4323 46.52 61.8723 46.08 60.4856 45.2C59.099 44.32 58.0056 43.1067 57.2056 41.56C56.4056 39.9867 56.0056 38.16 56.0056 36.08C56.0056 33.8667 56.499 31.92 57.4856 30.24C58.4723 28.5333 59.8323 27.2 61.5656 26.24C63.3256 25.28 65.3656 24.8 67.6856 24.8C69.9523 24.8 71.9256 25.2667 73.6056 26.2C75.2856 27.1067 76.5923 28.3867 77.5256 30.04C78.4856 31.6667 78.9656 33.56 78.9656 35.72V46H71.6856V42.92H71.4456C71.099 43.64 70.6323 44.28 70.0456 44.84C69.4856 45.3733 68.8056 45.7867 68.0056 46.08C67.2056 46.3733 66.259 46.52 65.1656 46.52ZM67.5256 39.8C68.2456 39.8 68.8723 39.6267 69.4056 39.28C69.9656 38.9333 70.3923 38.4533 70.6856 37.84C71.0056 37.2 71.1656 36.48 71.1656 35.68C71.1656 34.9067 71.0056 34.2267 70.6856 33.64C70.3923 33.0533 69.9656 32.5867 69.4056 32.24C68.8723 31.8933 68.2456 31.72 67.5256 31.72C66.8323 31.72 66.2056 31.8933 65.6456 32.24C65.0856 32.5867 64.6456 33.0533 64.3256 33.64C64.0323 34.2267 63.8856 34.9067 63.8856 35.68C63.8856 36.48 64.0323 37.2 64.3256 37.84C64.6456 38.4533 65.0856 38.9333 65.6456 39.28C66.2056 39.6267 66.8323 39.8 67.5256 39.8ZM82.3431 46V31.72C82.3431 29.7467 82.9165 28.1867 84.0631 27.04C85.2098 25.8933 86.8098 25.32 88.8631 25.32H95.5031V31.12H91.5431C91.0898 31.12 90.7165 31.2667 90.4231 31.56C90.1565 31.8267 90.0231 32.1867 90.0231 32.64V46H82.3431ZM106.996 46C104.969 46 103.383 45.4267 102.236 44.28C101.089 43.1333 100.516 41.5733 100.516 39.6V20.48H108.196V38.88C108.196 39.1467 108.289 39.3733 108.476 39.56C108.663 39.72 108.889 39.8 109.156 39.8H113.676V46H106.996ZM97.3959 31.12V25.28H113.676V31.12H97.3959Z" fill="#E52F06"/>
<path d="M68.3033 72.576C67.9833 72.576 67.6739 72.4693 67.3753 72.256C67.0766 72.064 66.9273 71.7333 66.9273 71.264C66.9273 70.7947 67.1406 70.432 67.5673 70.176C67.9939 69.8987 68.3886 69.76 68.7513 69.76C69.1139 69.76 69.4126 69.8667 69.6473 70.08C69.9033 70.272 70.0312 70.5173 70.0312 70.816C70.0312 71.9893 69.4553 72.576 68.3033 72.576Z" fill="#E52F06"/>
<path d="M76.4548 62.208L76.5188 61.728C76.5188 61.344 76.2948 61.152 75.8468 61.152C75.4201 61.152 75.0041 61.44 74.5988 62.016C74.1934 62.5707 73.9908 63.0293 73.9908 63.392C73.9908 63.7547 74.0121 64.0427 74.0548 64.256C74.0974 64.4693 74.1401 64.6507 74.1828 64.8C74.2468 64.928 74.3428 65.088 74.4708 65.28C74.5988 65.472 74.6948 65.6107 74.7588 65.696L75.1108 66.144C75.2601 66.3573 75.3668 66.496 75.4308 66.56C76.5401 65.6427 77.8628 64.6187 79.3988 63.488C79.4841 63.424 79.5801 63.392 79.6868 63.392C79.9001 63.392 80.0068 63.5093 80.0068 63.744C80.0068 63.9787 79.9108 64.16 79.7188 64.288C78.3534 65.1627 77.0628 66.112 75.8468 67.136C76.3161 67.8187 76.5508 68.5653 76.5508 69.376C76.5508 70.1867 76.2414 70.88 75.6228 71.456C75.0041 72.032 74.2148 72.32 73.2548 72.32C72.2948 72.32 71.8148 71.8613 71.8148 70.944C71.8148 70.2827 72.5188 69.2693 73.9268 67.904C73.8201 67.776 73.6281 67.5733 73.3508 67.296C73.0734 66.9973 72.8601 66.7627 72.7108 66.592C72.5828 66.4213 72.4228 66.1973 72.2308 65.92C71.8894 65.3867 71.7188 64.8107 71.7188 64.192C71.7188 62.9333 72.1241 61.92 72.9348 61.152C73.7454 60.3627 74.6094 59.968 75.5268 59.968C76.1028 59.968 76.5508 60.128 76.8708 60.448C77.1908 60.7467 77.3508 61.056 77.3508 61.376C77.3508 62.1013 77.1801 62.464 76.8388 62.464C76.5828 62.464 76.4548 62.3787 76.4548 62.208ZM74.4068 68.512C73.5534 69.3653 73.1268 70.0587 73.1268 70.592C73.1268 71.104 73.3934 71.36 73.9268 71.36C74.2468 71.36 74.5134 71.232 74.7268 70.976C75.1961 70.336 75.0894 69.5147 74.4068 68.512ZM85.543 66.784C83.8577 70.368 82.4283 72.16 81.255 72.16C80.103 72.16 79.4203 72.0213 79.207 71.744C79.015 71.4667 78.919 70.5493 78.919 68.992C78.919 67.4347 79.0683 65.184 79.367 62.24C78.3003 62.0267 77.735 61.5893 77.671 60.928C77.671 60.5867 77.895 60.416 78.343 60.416C78.791 60.416 79.1857 60.5013 79.527 60.672C79.719 59.136 79.943 57.5787 80.199 56C80.263 55.5947 80.4657 55.2107 80.807 54.848C81.1483 54.4853 81.479 54.304 81.799 54.304C82.0763 54.304 82.215 54.7413 82.215 55.616C82.215 56.0213 82.0657 57.888 81.767 61.216C82.343 61.1093 82.9723 60.896 83.655 60.576C84.359 60.256 84.775 60.096 84.903 60.096C85.287 60.096 85.479 60.2133 85.479 60.448C85.5003 60.6613 85.1057 60.96 84.295 61.344C83.4843 61.7067 82.6097 61.984 81.671 62.176C81.415 65.2907 81.287 67.648 81.287 69.248C81.287 70.1013 81.415 70.528 81.671 70.528C82.055 70.5067 82.567 70.0587 83.207 69.184C83.847 68.3093 84.4763 67.1787 85.095 65.792C85.735 64.384 86.119 63.68 86.247 63.68C86.3963 63.68 86.471 63.7653 86.471 63.936C86.471 64.5333 86.1617 65.4827 85.543 66.784ZM94.8285 65.056C95.6818 64.7787 96.2685 64.544 96.5885 64.352C96.9298 64.1387 97.1858 63.9787 97.3565 63.872L97.7405 63.648C97.8472 63.584 97.9325 63.552 97.9965 63.552C98.1672 63.552 98.2525 63.648 98.2525 63.84C98.2525 64.032 97.9218 64.3733 97.2605 64.864C96.5992 65.3333 95.7778 65.76 94.7965 66.144C94.6472 67.936 94.0818 69.3867 93.1005 70.496C92.1192 71.6053 90.7218 72.16 88.9085 72.16C87.5858 72.16 86.5725 71.6373 85.8685 70.592C85.1645 69.5253 84.8125 68.288 84.8125 66.88C84.8125 65.4507 85.2285 64.1067 86.0605 62.848C86.9138 61.5893 88.0018 60.96 89.3245 60.96C89.9218 60.5333 90.6258 60.32 91.4365 60.32C92.2685 60.32 93.0365 60.7573 93.7405 61.632C94.4445 62.5067 94.8072 63.648 94.8285 65.056ZM92.7485 66.688L91.5965 66.752C90.6152 66.752 89.7832 66.464 89.1005 65.888C88.4178 65.2907 88.0765 64.64 88.0765 63.936C88.0765 63.232 88.1938 62.624 88.4285 62.112C87.5112 62.8373 87.0525 64.2667 87.0525 66.4C87.0525 67.424 87.2658 68.4053 87.6925 69.344C88.1192 70.2613 88.7912 70.72 89.7085 70.72C90.6258 70.72 91.3405 70.336 91.8525 69.568C92.3645 68.7787 92.6632 67.8187 92.7485 66.688ZM90.7645 61.376C90.4232 61.376 90.1565 61.536 89.9645 61.856C89.7725 62.1547 89.6765 62.4853 89.6765 62.848C89.6765 63.6373 89.9432 64.2773 90.4765 64.768C91.0312 65.2587 91.6712 65.504 92.3965 65.504H92.7805C92.7378 64.4587 92.5565 63.5093 92.2365 62.656C91.9378 61.8027 91.4472 61.376 90.7645 61.376ZM99.2528 63.648L101.013 63.456C101.183 63.456 101.333 63.552 101.461 63.744C101.589 63.936 101.653 64.1387 101.653 64.352C101.653 64.5653 101.578 65.2907 101.429 66.528C101.301 67.7653 101.237 68.7467 101.237 69.472C101.237 70.176 101.301 70.528 101.429 70.528C101.791 70.5067 102.293 70.0587 102.933 69.184C103.573 68.288 104.202 67.1467 104.821 65.76C105.461 64.3733 105.845 63.68 105.973 63.68C106.122 63.68 106.197 63.7653 106.197 63.936C106.197 64.5333 105.887 65.4827 105.269 66.784C103.583 70.368 102.165 72.16 101.013 72.16C100.181 72.16 99.5514 71.9893 99.1248 71.648C98.9754 71.4987 98.9008 70.5707 98.9008 68.864C98.9008 67.1573 99.0821 65.696 99.4448 64.48C98.2074 64.48 97.3434 64.0853 96.8528 63.296C96.5968 62.8907 96.4688 62.432 96.4688 61.92C96.4688 61.408 96.5754 60.96 96.7888 60.576C97.0021 60.192 97.3008 60 97.6848 60C98.0901 60 98.4528 60.2133 98.7728 60.64C99.1141 61.0453 99.2848 61.504 99.2848 62.016C99.2848 62.528 99.1354 63.04 98.8368 63.552C98.9221 63.616 99.0608 63.648 99.2528 63.648ZM108.529 72.16C107.334 72.16 106.385 71.712 105.681 70.816C104.977 69.8987 104.625 68.864 104.625 67.712C104.625 65.3867 105.116 63.6267 106.097 62.432C107.078 61.2373 108.348 60.64 109.905 60.64C110.63 60.64 111.228 60.8427 111.697 61.248C112.166 61.632 112.401 62.1653 112.401 62.848C112.401 64.128 111.857 65.2053 110.769 66.08C109.702 66.9333 108.39 67.3813 106.833 67.424C106.918 68.256 107.196 68.9813 107.665 69.6C108.156 70.1973 108.721 70.496 109.361 70.496C110.001 70.496 110.577 70.3467 111.089 70.048C111.601 69.7493 112.07 69.3227 112.497 68.768C113.393 67.5947 114.161 66.2613 114.801 64.768C114.972 64.384 115.1 64.1067 115.185 63.936C115.292 63.7653 115.398 63.68 115.505 63.68C115.633 63.68 115.697 63.7653 115.697 63.936C115.697 65.0027 115.046 66.6027 113.745 68.736C112.337 71.0187 110.598 72.16 108.529 72.16ZM106.833 66.656C108.092 66.4427 109.009 66.0373 109.585 65.44C110.182 64.8427 110.481 64.064 110.481 63.104C110.481 62.144 110.172 61.664 109.553 61.664C108.806 61.664 108.177 62.1867 107.665 63.232C107.153 64.256 106.876 65.3973 106.833 66.656Z" fill="#044700"/>
</svg>
