<svg width="226" height="226" viewBox="0 0 226 226" fill="none" xmlns="http://www.w3.org/2000/svg">
<rect width="226" height="226" rx="57" fill="#E52F06"/>
<path d="M186.155 61.2362C184.516 59.3562 182.155 58.2745 179.665 58.2745H61.0375L59.3635 48.2823C58.6768 44.1446 55.0971 41.1057 50.8993 41.1057H31.5844C26.8372 41.1057 23 44.943 23 49.6901C23 54.4373 26.8372 58.2745 31.5844 58.2745H43.6283L59.5953 154.111C59.664 154.497 59.8614 154.815 59.9816 155.175C60.119 155.63 60.2306 156.059 60.4452 156.472C60.7199 157.038 61.089 157.519 61.4753 158.008C61.7414 158.343 61.9818 158.678 62.2908 158.97C62.7887 159.433 63.3639 159.759 63.9476 160.086C64.2738 160.266 64.5571 160.506 64.9091 160.644C65.9049 161.047 66.9521 161.287 68.0595 161.287H162.497C167.244 161.287 171.081 157.45 171.081 152.703C171.081 147.956 167.244 144.119 162.497 144.119H75.3391L73.9141 135.534H171.081C175.356 135.534 178.979 132.392 179.58 128.169L188.164 68.0779C188.516 65.6056 187.778 63.1076 186.155 61.2362ZM169.768 75.4434L167.321 92.6122H136.743V75.4434H169.768ZM128.159 75.4434V92.6122H102.406V75.4434H128.159ZM128.159 101.197V118.365H102.406V101.197H128.159ZM93.8213 75.4434V92.6122H68.0681C67.6131 92.6122 67.2011 92.7409 66.7976 92.8697L63.8961 75.4434H93.8213ZM68.1883 101.197H93.8213V118.365H71.0469L68.1883 101.197ZM136.743 118.365V101.197H166.085L163.638 118.365H136.743Z" fill="white"/>
<path d="M80.9447 195.625C88.0563 195.625 93.8213 189.86 93.8213 182.748C93.8213 175.637 88.0563 169.872 80.9447 169.872C73.8332 169.872 68.0681 175.637 68.0681 182.748C68.0681 189.86 73.8332 195.625 80.9447 195.625Z" fill="white"/>
<path d="M158.204 195.625C165.316 195.625 171.081 189.86 171.081 182.748C171.081 175.637 165.316 169.872 158.204 169.872C151.093 169.872 145.328 175.637 145.328 182.748C145.328 189.86 151.093 195.625 158.204 195.625Z" fill="white"/>
</svg>
